<svg width="115" height="25" viewBox="0 0 115 25" fill="none" xmlns="http://www.w3.org/2000/svg">
<mask id="path-1-outside-1_32_3009" maskUnits="userSpaceOnUse" x="36.6113" y="8.37451" width="78" height="14" fill="black">
<rect fill="white" x="36.6113" y="8.37451" width="78" height="14"/>
<path d="M37.6113 16.0961C37.6113 14.9867 37.8644 13.9915 38.3706 13.1105C38.8767 12.2187 39.5644 11.5226 40.4337 11.0223C41.314 10.522 42.2878 10.2718 43.3551 10.2718C44.6095 10.2718 45.7043 10.5709 46.6396 11.1691C47.5749 11.7673 48.2571 12.6157 48.6863 13.7142H46.8872C46.5681 13.029 46.106 12.5015 45.5008 12.1317C44.9066 11.7619 44.1914 11.577 43.3551 11.577C42.5519 11.577 41.8311 11.7619 41.1929 12.1317C40.5547 12.5015 40.0541 13.029 39.691 13.7142C39.3279 14.3885 39.1463 15.1825 39.1463 16.0961C39.1463 16.9988 39.3279 17.7928 39.691 18.478C40.0541 19.1524 40.5547 19.6744 41.1929 20.0442C41.8311 20.414 42.5519 20.5989 43.3551 20.5989C44.1914 20.5989 44.9066 20.4195 45.5008 20.0605C46.106 19.6907 46.5681 19.1632 46.8872 18.478H48.6863C48.2571 19.5657 47.5749 20.4086 46.6396 21.0068C45.7043 21.5941 44.6095 21.8878 43.3551 21.8878C42.2878 21.8878 41.314 21.643 40.4337 21.1536C39.5644 20.6533 38.8767 19.9626 38.3706 19.0817C37.8644 18.2007 37.6113 17.2055 37.6113 16.0961Z"/>
<path d="M54.8668 21.9367C54.0195 21.9367 53.2493 21.7464 52.5561 21.3657C51.8738 20.985 51.3347 20.4466 50.9386 19.7506C50.5534 19.0436 50.3609 18.2279 50.3609 17.3034C50.3609 16.3898 50.5589 15.5849 50.9551 14.8888C51.3622 14.1819 51.9124 13.6435 52.6056 13.2737C53.2988 12.893 54.0745 12.7027 54.9328 12.7027C55.791 12.7027 56.5668 12.893 57.26 13.2737C57.9532 13.6435 58.4979 14.1764 58.894 14.8725C59.3011 15.5686 59.5047 16.3789 59.5047 17.3034C59.5047 18.2279 59.2956 19.0436 58.8775 19.7506C58.4704 20.4466 57.9147 20.985 57.2105 21.3657C56.5063 21.7464 55.725 21.9367 54.8668 21.9367ZM54.8668 20.6315C55.4059 20.6315 55.9121 20.5065 56.3852 20.2563C56.8584 20.0062 57.238 19.6309 57.5241 19.1306C57.8212 18.6303 57.9697 18.0212 57.9697 17.3034C57.9697 16.5855 57.8267 15.9765 57.5406 15.4761C57.2545 14.9758 56.8804 14.606 56.4182 14.3668C55.9561 14.1166 55.4554 13.9915 54.9163 13.9915C54.3661 13.9915 53.86 14.1166 53.3978 14.3668C52.9467 14.606 52.5836 14.9758 52.3085 15.4761C52.0334 15.9765 51.8958 16.5855 51.8958 17.3034C51.8958 18.0321 52.0279 18.6466 52.292 19.1469C52.5671 19.6472 52.9302 20.0225 53.3813 20.2726C53.8324 20.5119 54.3276 20.6315 54.8668 20.6315Z"/>
<path d="M62.2552 11.3975C61.9692 11.3975 61.7271 11.2996 61.529 11.1039C61.331 10.9081 61.2319 10.6688 61.2319 10.386C61.2319 10.1032 61.331 9.86395 61.529 9.66817C61.7271 9.4724 61.9692 9.37451 62.2552 9.37451C62.5303 9.37451 62.7614 9.4724 62.9485 9.66817C63.1465 9.86395 63.2456 10.1032 63.2456 10.386C63.2456 10.6688 63.1465 10.9081 62.9485 11.1039C62.7614 11.2996 62.5303 11.3975 62.2552 11.3975ZM62.9815 12.8495V21.7899H61.4795V12.8495H62.9815Z"/>
<path d="M69.9482 12.6864C71.0485 12.6864 71.9398 13.0181 72.622 13.6816C73.3042 14.3341 73.6453 15.2804 73.6453 16.5203V21.7899H72.1599V16.7324C72.1599 15.8405 71.9343 15.1607 71.4831 14.6931C71.032 14.2145 70.4158 13.9752 69.6346 13.9752C68.8423 13.9752 68.2096 14.2199 67.7365 14.7094C67.2743 15.1988 67.0433 15.9112 67.0433 16.8466V21.7899H65.5413V12.8495H67.0433V14.122C67.3404 13.6652 67.742 13.3118 68.2481 13.0616C68.7653 12.8114 69.332 12.6864 69.9482 12.6864Z"/>
<path d="M81.8591 15.933C82.2772 15.9982 82.6568 16.1668 82.9979 16.4387C83.35 16.7106 83.6251 17.0478 83.8232 17.4502C84.0322 17.8526 84.1368 18.2823 84.1368 18.7391C84.1368 19.3155 83.9882 19.8376 83.6911 20.3053C83.394 20.7621 82.9594 21.1264 82.3872 21.3983C81.826 21.6594 81.1603 21.7899 80.3901 21.7899H76.0988V10.4186H80.225C81.0063 10.4186 81.672 10.5492 82.2222 10.8102C82.7723 11.0603 83.185 11.403 83.46 11.838C83.7351 12.2731 83.8727 12.7625 83.8727 13.3063C83.8727 13.9806 83.6856 14.5408 83.3115 14.9867C82.9484 15.4218 82.4642 15.7372 81.8591 15.933ZM77.6007 15.3293H80.126C80.8302 15.3293 81.3749 15.1662 81.76 14.8399C82.1451 14.5136 82.3377 14.0622 82.3377 13.4858C82.3377 12.9093 82.1451 12.458 81.76 12.1317C81.3749 11.8054 80.8192 11.6422 80.093 11.6422H77.6007V15.3293ZM80.2581 20.5663C81.0063 20.5663 81.5895 20.3923 82.0076 20.0442C82.4257 19.6962 82.6348 19.2122 82.6348 18.5922C82.6348 17.9614 82.4147 17.4665 81.9746 17.1076C81.5344 16.7378 80.9458 16.5529 80.2085 16.5529H77.6007V20.5663H80.2581Z"/>
<path d="M85.6599 17.2871C85.6599 16.3734 85.8469 15.574 86.221 14.8888C86.5952 14.1927 87.1068 13.6544 87.756 13.2737C88.4162 12.893 89.1479 12.7027 89.9512 12.7027C90.7434 12.7027 91.4311 12.8713 92.0143 13.2084C92.5975 13.5456 93.0321 13.9698 93.3182 14.481V12.8495H94.8367V21.7899H93.3182V20.1258C93.0211 20.6479 92.5755 21.0829 91.9813 21.431C91.3981 21.7681 90.7159 21.9367 89.9347 21.9367C89.1314 21.9367 88.4052 21.7409 87.756 21.3494C87.1068 20.9578 86.5952 20.4086 86.221 19.7016C85.8469 18.9947 85.6599 18.1898 85.6599 17.2871ZM93.3182 17.3034C93.3182 16.629 93.1807 16.0417 92.9056 15.5414C92.6305 15.0411 92.2564 14.6604 91.7833 14.3994C91.3211 14.1275 90.8095 13.9915 90.2483 13.9915C89.6871 13.9915 89.1755 14.122 88.7133 14.3831C88.2512 14.6441 87.8825 15.0248 87.6075 15.5251C87.3324 16.0254 87.1948 16.6127 87.1948 17.2871C87.1948 17.9723 87.3324 18.5705 87.6075 19.0817C87.8825 19.582 88.2512 19.9681 88.7133 20.24C89.1755 20.501 89.6871 20.6315 90.2483 20.6315C90.8095 20.6315 91.3211 20.501 91.7833 20.24C92.2564 19.9681 92.6305 19.582 92.9056 19.0817C93.1807 18.5705 93.3182 17.9777 93.3182 17.3034Z"/>
<path d="M100.577 21.9367C99.8836 21.9367 99.262 21.8225 98.7118 21.5941C98.1616 21.3548 97.727 21.0285 97.4079 20.6152C97.0888 20.1911 96.9127 19.7071 96.8797 19.1632H98.4312C98.4752 19.6092 98.6843 19.9735 99.0584 20.2563C99.4435 20.5391 99.9442 20.6805 100.56 20.6805C101.133 20.6805 101.584 20.5554 101.914 20.3053C102.244 20.0551 102.409 19.7397 102.409 19.359C102.409 18.9675 102.233 18.6792 101.881 18.4943C101.529 18.2986 100.984 18.1082 100.247 17.9233C99.5756 17.7493 99.0254 17.5753 98.5963 17.4013C98.1781 17.2164 97.815 16.9499 97.5069 16.6019C97.2098 16.2429 97.0613 15.7752 97.0613 15.1988C97.0613 14.742 97.1988 14.3233 97.4739 13.9426C97.749 13.5619 98.1396 13.2628 98.6458 13.0453C99.1519 12.8169 99.7296 12.7027 100.379 12.7027C101.38 12.7027 102.189 12.9528 102.805 13.4531C103.421 13.9535 103.751 14.6387 103.795 15.5088H102.293C102.26 15.0411 102.068 14.6659 101.716 14.3831C101.375 14.1003 100.912 13.9589 100.329 13.9589C99.7901 13.9589 99.361 14.0731 99.0419 14.3015C98.7228 14.5299 98.5632 14.829 98.5632 15.1988C98.5632 15.4925 98.6568 15.7372 98.8438 15.933C99.0419 16.1179 99.284 16.2701 99.5701 16.3898C99.8671 16.4985 100.274 16.6236 100.791 16.765C101.441 16.939 101.969 17.113 102.376 17.2871C102.783 17.4502 103.13 17.7004 103.416 18.0375C103.713 18.3747 103.867 18.8152 103.878 19.359C103.878 19.8484 103.74 20.2889 103.465 20.6805C103.19 21.072 102.8 21.382 102.293 21.6104C101.798 21.8279 101.226 21.9367 100.577 21.9367Z"/>
<path d="M114.251 16.9771C114.251 17.2599 114.234 17.559 114.201 17.8744H106.972C107.027 18.7554 107.33 19.446 107.88 19.9463C108.441 20.4358 109.118 20.6805 109.91 20.6805C110.559 20.6805 111.098 20.5337 111.527 20.24C111.967 19.9355 112.276 19.533 112.452 19.0327H114.069C113.827 19.892 113.343 20.5935 112.617 21.1373C111.89 21.6702 110.988 21.9367 109.91 21.9367C109.052 21.9367 108.281 21.7464 107.599 21.3657C106.928 20.985 106.4 20.4466 106.015 19.7506C105.63 19.0436 105.437 18.2279 105.437 17.3034C105.437 16.3789 105.624 15.5686 105.998 14.8725C106.372 14.1764 106.895 13.6435 107.566 13.2737C108.248 12.893 109.03 12.7027 109.91 12.7027C110.768 12.7027 111.527 12.8876 112.188 13.2574C112.848 13.6272 113.354 14.1384 113.706 14.7909C114.069 15.4326 114.251 16.1614 114.251 16.9771ZM112.699 16.6671C112.699 16.1015 112.573 15.6175 112.32 15.2151C112.067 14.8018 111.72 14.4918 111.28 14.2852C110.851 14.0677 110.372 13.9589 109.844 13.9589C109.085 13.9589 108.435 14.1982 107.896 14.6767C107.368 15.1553 107.065 15.8188 106.988 16.6671H112.699Z"/>
</mask>
<path d="M37.6113 16.0961C37.6113 14.9867 37.8644 13.9915 38.3706 13.1105C38.8767 12.2187 39.5644 11.5226 40.4337 11.0223C41.314 10.522 42.2878 10.2718 43.3551 10.2718C44.6095 10.2718 45.7043 10.5709 46.6396 11.1691C47.5749 11.7673 48.2571 12.6157 48.6863 13.7142H46.8872C46.5681 13.029 46.106 12.5015 45.5008 12.1317C44.9066 11.7619 44.1914 11.577 43.3551 11.577C42.5519 11.577 41.8311 11.7619 41.1929 12.1317C40.5547 12.5015 40.0541 13.029 39.691 13.7142C39.3279 14.3885 39.1463 15.1825 39.1463 16.0961C39.1463 16.9988 39.3279 17.7928 39.691 18.478C40.0541 19.1524 40.5547 19.6744 41.1929 20.0442C41.8311 20.414 42.5519 20.5989 43.3551 20.5989C44.1914 20.5989 44.9066 20.4195 45.5008 20.0605C46.106 19.6907 46.5681 19.1632 46.8872 18.478H48.6863C48.2571 19.5657 47.5749 20.4086 46.6396 21.0068C45.7043 21.5941 44.6095 21.8878 43.3551 21.8878C42.2878 21.8878 41.314 21.643 40.4337 21.1536C39.5644 20.6533 38.8767 19.9626 38.3706 19.0817C37.8644 18.2007 37.6113 17.2055 37.6113 16.0961Z" fill="white"/>
<path d="M54.8668 21.9367C54.0195 21.9367 53.2493 21.7464 52.5561 21.3657C51.8738 20.985 51.3347 20.4466 50.9386 19.7506C50.5534 19.0436 50.3609 18.2279 50.3609 17.3034C50.3609 16.3898 50.5589 15.5849 50.9551 14.8888C51.3622 14.1819 51.9124 13.6435 52.6056 13.2737C53.2988 12.893 54.0745 12.7027 54.9328 12.7027C55.791 12.7027 56.5668 12.893 57.26 13.2737C57.9532 13.6435 58.4979 14.1764 58.894 14.8725C59.3011 15.5686 59.5047 16.3789 59.5047 17.3034C59.5047 18.2279 59.2956 19.0436 58.8775 19.7506C58.4704 20.4466 57.9147 20.985 57.2105 21.3657C56.5063 21.7464 55.725 21.9367 54.8668 21.9367ZM54.8668 20.6315C55.4059 20.6315 55.9121 20.5065 56.3852 20.2563C56.8584 20.0062 57.238 19.6309 57.5241 19.1306C57.8212 18.6303 57.9697 18.0212 57.9697 17.3034C57.9697 16.5855 57.8267 15.9765 57.5406 15.4761C57.2545 14.9758 56.8804 14.606 56.4182 14.3668C55.9561 14.1166 55.4554 13.9915 54.9163 13.9915C54.3661 13.9915 53.86 14.1166 53.3978 14.3668C52.9467 14.606 52.5836 14.9758 52.3085 15.4761C52.0334 15.9765 51.8958 16.5855 51.8958 17.3034C51.8958 18.0321 52.0279 18.6466 52.292 19.1469C52.5671 19.6472 52.9302 20.0225 53.3813 20.2726C53.8324 20.5119 54.3276 20.6315 54.8668 20.6315Z" fill="white"/>
<path d="M62.2552 11.3975C61.9692 11.3975 61.7271 11.2996 61.529 11.1039C61.331 10.9081 61.2319 10.6688 61.2319 10.386C61.2319 10.1032 61.331 9.86395 61.529 9.66817C61.7271 9.4724 61.9692 9.37451 62.2552 9.37451C62.5303 9.37451 62.7614 9.4724 62.9485 9.66817C63.1465 9.86395 63.2456 10.1032 63.2456 10.386C63.2456 10.6688 63.1465 10.9081 62.9485 11.1039C62.7614 11.2996 62.5303 11.3975 62.2552 11.3975ZM62.9815 12.8495V21.7899H61.4795V12.8495H62.9815Z" fill="white"/>
<path d="M69.9482 12.6864C71.0485 12.6864 71.9398 13.0181 72.622 13.6816C73.3042 14.3341 73.6453 15.2804 73.6453 16.5203V21.7899H72.1599V16.7324C72.1599 15.8405 71.9343 15.1607 71.4831 14.6931C71.032 14.2145 70.4158 13.9752 69.6346 13.9752C68.8423 13.9752 68.2096 14.2199 67.7365 14.7094C67.2743 15.1988 67.0433 15.9112 67.0433 16.8466V21.7899H65.5413V12.8495H67.0433V14.122C67.3404 13.6652 67.742 13.3118 68.2481 13.0616C68.7653 12.8114 69.332 12.6864 69.9482 12.6864Z" fill="white"/>
<path d="M81.8591 15.933C82.2772 15.9982 82.6568 16.1668 82.9979 16.4387C83.35 16.7106 83.6251 17.0478 83.8232 17.4502C84.0322 17.8526 84.1368 18.2823 84.1368 18.7391C84.1368 19.3155 83.9882 19.8376 83.6911 20.3053C83.394 20.7621 82.9594 21.1264 82.3872 21.3983C81.826 21.6594 81.1603 21.7899 80.3901 21.7899H76.0988V10.4186H80.225C81.0063 10.4186 81.672 10.5492 82.2222 10.8102C82.7723 11.0603 83.185 11.403 83.46 11.838C83.7351 12.2731 83.8727 12.7625 83.8727 13.3063C83.8727 13.9806 83.6856 14.5408 83.3115 14.9867C82.9484 15.4218 82.4642 15.7372 81.8591 15.933ZM77.6007 15.3293H80.126C80.8302 15.3293 81.3749 15.1662 81.76 14.8399C82.1451 14.5136 82.3377 14.0622 82.3377 13.4858C82.3377 12.9093 82.1451 12.458 81.76 12.1317C81.3749 11.8054 80.8192 11.6422 80.093 11.6422H77.6007V15.3293ZM80.2581 20.5663C81.0063 20.5663 81.5895 20.3923 82.0076 20.0442C82.4257 19.6962 82.6348 19.2122 82.6348 18.5922C82.6348 17.9614 82.4147 17.4665 81.9746 17.1076C81.5344 16.7378 80.9458 16.5529 80.2085 16.5529H77.6007V20.5663H80.2581Z" fill="white"/>
<path d="M85.6599 17.2871C85.6599 16.3734 85.8469 15.574 86.221 14.8888C86.5952 14.1927 87.1068 13.6544 87.756 13.2737C88.4162 12.893 89.1479 12.7027 89.9512 12.7027C90.7434 12.7027 91.4311 12.8713 92.0143 13.2084C92.5975 13.5456 93.0321 13.9698 93.3182 14.481V12.8495H94.8367V21.7899H93.3182V20.1258C93.0211 20.6479 92.5755 21.0829 91.9813 21.431C91.3981 21.7681 90.7159 21.9367 89.9347 21.9367C89.1314 21.9367 88.4052 21.7409 87.756 21.3494C87.1068 20.9578 86.5952 20.4086 86.221 19.7016C85.8469 18.9947 85.6599 18.1898 85.6599 17.2871ZM93.3182 17.3034C93.3182 16.629 93.1807 16.0417 92.9056 15.5414C92.6305 15.0411 92.2564 14.6604 91.7833 14.3994C91.3211 14.1275 90.8095 13.9915 90.2483 13.9915C89.6871 13.9915 89.1755 14.122 88.7133 14.3831C88.2512 14.6441 87.8825 15.0248 87.6075 15.5251C87.3324 16.0254 87.1948 16.6127 87.1948 17.2871C87.1948 17.9723 87.3324 18.5705 87.6075 19.0817C87.8825 19.582 88.2512 19.9681 88.7133 20.24C89.1755 20.501 89.6871 20.6315 90.2483 20.6315C90.8095 20.6315 91.3211 20.501 91.7833 20.24C92.2564 19.9681 92.6305 19.582 92.9056 19.0817C93.1807 18.5705 93.3182 17.9777 93.3182 17.3034Z" fill="white"/>
<path d="M100.577 21.9367C99.8836 21.9367 99.262 21.8225 98.7118 21.5941C98.1616 21.3548 97.727 21.0285 97.4079 20.6152C97.0888 20.1911 96.9127 19.7071 96.8797 19.1632H98.4312C98.4752 19.6092 98.6843 19.9735 99.0584 20.2563C99.4435 20.5391 99.9442 20.6805 100.56 20.6805C101.133 20.6805 101.584 20.5554 101.914 20.3053C102.244 20.0551 102.409 19.7397 102.409 19.359C102.409 18.9675 102.233 18.6792 101.881 18.4943C101.529 18.2986 100.984 18.1082 100.247 17.9233C99.5756 17.7493 99.0254 17.5753 98.5963 17.4013C98.1781 17.2164 97.815 16.9499 97.5069 16.6019C97.2098 16.2429 97.0613 15.7752 97.0613 15.1988C97.0613 14.742 97.1988 14.3233 97.4739 13.9426C97.749 13.5619 98.1396 13.2628 98.6458 13.0453C99.1519 12.8169 99.7296 12.7027 100.379 12.7027C101.38 12.7027 102.189 12.9528 102.805 13.4531C103.421 13.9535 103.751 14.6387 103.795 15.5088H102.293C102.26 15.0411 102.068 14.6659 101.716 14.3831C101.375 14.1003 100.912 13.9589 100.329 13.9589C99.7901 13.9589 99.361 14.0731 99.0419 14.3015C98.7228 14.5299 98.5632 14.829 98.5632 15.1988C98.5632 15.4925 98.6568 15.7372 98.8438 15.933C99.0419 16.1179 99.284 16.2701 99.5701 16.3898C99.8671 16.4985 100.274 16.6236 100.791 16.765C101.441 16.939 101.969 17.113 102.376 17.2871C102.783 17.4502 103.13 17.7004 103.416 18.0375C103.713 18.3747 103.867 18.8152 103.878 19.359C103.878 19.8484 103.74 20.2889 103.465 20.6805C103.19 21.072 102.8 21.382 102.293 21.6104C101.798 21.8279 101.226 21.9367 100.577 21.9367Z" fill="white"/>
<path d="M114.251 16.9771C114.251 17.2599 114.234 17.559 114.201 17.8744H106.972C107.027 18.7554 107.33 19.446 107.88 19.9463C108.441 20.4358 109.118 20.6805 109.91 20.6805C110.559 20.6805 111.098 20.5337 111.527 20.24C111.967 19.9355 112.276 19.533 112.452 19.0327H114.069C113.827 19.892 113.343 20.5935 112.617 21.1373C111.89 21.6702 110.988 21.9367 109.91 21.9367C109.052 21.9367 108.281 21.7464 107.599 21.3657C106.928 20.985 106.4 20.4466 106.015 19.7506C105.63 19.0436 105.437 18.2279 105.437 17.3034C105.437 16.3789 105.624 15.5686 105.998 14.8725C106.372 14.1764 106.895 13.6435 107.566 13.2737C108.248 12.893 109.03 12.7027 109.91 12.7027C110.768 12.7027 111.527 12.8876 112.188 13.2574C112.848 13.6272 113.354 14.1384 113.706 14.7909C114.069 15.4326 114.251 16.1614 114.251 16.9771ZM112.699 16.6671C112.699 16.1015 112.573 15.6175 112.32 15.2151C112.067 14.8018 111.72 14.4918 111.28 14.2852C110.851 14.0677 110.372 13.9589 109.844 13.9589C109.085 13.9589 108.435 14.1982 107.896 14.6767C107.368 15.1553 107.065 15.8188 106.988 16.6671H112.699Z" fill="white"/>
<path d="M37.6113 16.0961C37.6113 14.9867 37.8644 13.9915 38.3706 13.1105C38.8767 12.2187 39.5644 11.5226 40.4337 11.0223C41.314 10.522 42.2878 10.2718 43.3551 10.2718C44.6095 10.2718 45.7043 10.5709 46.6396 11.1691C47.5749 11.7673 48.2571 12.6157 48.6863 13.7142H46.8872C46.5681 13.029 46.106 12.5015 45.5008 12.1317C44.9066 11.7619 44.1914 11.577 43.3551 11.577C42.5519 11.577 41.8311 11.7619 41.1929 12.1317C40.5547 12.5015 40.0541 13.029 39.691 13.7142C39.3279 14.3885 39.1463 15.1825 39.1463 16.0961C39.1463 16.9988 39.3279 17.7928 39.691 18.478C40.0541 19.1524 40.5547 19.6744 41.1929 20.0442C41.8311 20.414 42.5519 20.5989 43.3551 20.5989C44.1914 20.5989 44.9066 20.4195 45.5008 20.0605C46.106 19.6907 46.5681 19.1632 46.8872 18.478H48.6863C48.2571 19.5657 47.5749 20.4086 46.6396 21.0068C45.7043 21.5941 44.6095 21.8878 43.3551 21.8878C42.2878 21.8878 41.314 21.643 40.4337 21.1536C39.5644 20.6533 38.8767 19.9626 38.3706 19.0817C37.8644 18.2007 37.6113 17.2055 37.6113 16.0961Z" stroke="white" stroke-width="0.4" mask="url(#path-1-outside-1_32_3009)"/>
<path d="M54.8668 21.9367C54.0195 21.9367 53.2493 21.7464 52.5561 21.3657C51.8738 20.985 51.3347 20.4466 50.9386 19.7506C50.5534 19.0436 50.3609 18.2279 50.3609 17.3034C50.3609 16.3898 50.5589 15.5849 50.9551 14.8888C51.3622 14.1819 51.9124 13.6435 52.6056 13.2737C53.2988 12.893 54.0745 12.7027 54.9328 12.7027C55.791 12.7027 56.5668 12.893 57.26 13.2737C57.9532 13.6435 58.4979 14.1764 58.894 14.8725C59.3011 15.5686 59.5047 16.3789 59.5047 17.3034C59.5047 18.2279 59.2956 19.0436 58.8775 19.7506C58.4704 20.4466 57.9147 20.985 57.2105 21.3657C56.5063 21.7464 55.725 21.9367 54.8668 21.9367ZM54.8668 20.6315C55.4059 20.6315 55.9121 20.5065 56.3852 20.2563C56.8584 20.0062 57.238 19.6309 57.5241 19.1306C57.8212 18.6303 57.9697 18.0212 57.9697 17.3034C57.9697 16.5855 57.8267 15.9765 57.5406 15.4761C57.2545 14.9758 56.8804 14.606 56.4182 14.3668C55.9561 14.1166 55.4554 13.9915 54.9163 13.9915C54.3661 13.9915 53.86 14.1166 53.3978 14.3668C52.9467 14.606 52.5836 14.9758 52.3085 15.4761C52.0334 15.9765 51.8958 16.5855 51.8958 17.3034C51.8958 18.0321 52.0279 18.6466 52.292 19.1469C52.5671 19.6472 52.9302 20.0225 53.3813 20.2726C53.8324 20.5119 54.3276 20.6315 54.8668 20.6315Z" stroke="white" stroke-width="0.4" mask="url(#path-1-outside-1_32_3009)"/>
<path d="M62.2552 11.3975C61.9692 11.3975 61.7271 11.2996 61.529 11.1039C61.331 10.9081 61.2319 10.6688 61.2319 10.386C61.2319 10.1032 61.331 9.86395 61.529 9.66817C61.7271 9.4724 61.9692 9.37451 62.2552 9.37451C62.5303 9.37451 62.7614 9.4724 62.9485 9.66817C63.1465 9.86395 63.2456 10.1032 63.2456 10.386C63.2456 10.6688 63.1465 10.9081 62.9485 11.1039C62.7614 11.2996 62.5303 11.3975 62.2552 11.3975ZM62.9815 12.8495V21.7899H61.4795V12.8495H62.9815Z" stroke="white" stroke-width="0.4" mask="url(#path-1-outside-1_32_3009)"/>
<path d="M69.9482 12.6864C71.0485 12.6864 71.9398 13.0181 72.622 13.6816C73.3042 14.3341 73.6453 15.2804 73.6453 16.5203V21.7899H72.1599V16.7324C72.1599 15.8405 71.9343 15.1607 71.4831 14.6931C71.032 14.2145 70.4158 13.9752 69.6346 13.9752C68.8423 13.9752 68.2096 14.2199 67.7365 14.7094C67.2743 15.1988 67.0433 15.9112 67.0433 16.8466V21.7899H65.5413V12.8495H67.0433V14.122C67.3404 13.6652 67.742 13.3118 68.2481 13.0616C68.7653 12.8114 69.332 12.6864 69.9482 12.6864Z" stroke="white" stroke-width="0.4" mask="url(#path-1-outside-1_32_3009)"/>
<path d="M81.8591 15.933C82.2772 15.9982 82.6568 16.1668 82.9979 16.4387C83.35 16.7106 83.6251 17.0478 83.8232 17.4502C84.0322 17.8526 84.1368 18.2823 84.1368 18.7391C84.1368 19.3155 83.9882 19.8376 83.6911 20.3053C83.394 20.7621 82.9594 21.1264 82.3872 21.3983C81.826 21.6594 81.1603 21.7899 80.3901 21.7899H76.0988V10.4186H80.225C81.0063 10.4186 81.672 10.5492 82.2222 10.8102C82.7723 11.0603 83.185 11.403 83.46 11.838C83.7351 12.2731 83.8727 12.7625 83.8727 13.3063C83.8727 13.9806 83.6856 14.5408 83.3115 14.9867C82.9484 15.4218 82.4642 15.7372 81.8591 15.933ZM77.6007 15.3293H80.126C80.8302 15.3293 81.3749 15.1662 81.76 14.8399C82.1451 14.5136 82.3377 14.0622 82.3377 13.4858C82.3377 12.9093 82.1451 12.458 81.76 12.1317C81.3749 11.8054 80.8192 11.6422 80.093 11.6422H77.6007V15.3293ZM80.2581 20.5663C81.0063 20.5663 81.5895 20.3923 82.0076 20.0442C82.4257 19.6962 82.6348 19.2122 82.6348 18.5922C82.6348 17.9614 82.4147 17.4665 81.9746 17.1076C81.5344 16.7378 80.9458 16.5529 80.2085 16.5529H77.6007V20.5663H80.2581Z" stroke="white" stroke-width="0.4" mask="url(#path-1-outside-1_32_3009)"/>
<path d="M85.6599 17.2871C85.6599 16.3734 85.8469 15.574 86.221 14.8888C86.5952 14.1927 87.1068 13.6544 87.756 13.2737C88.4162 12.893 89.1479 12.7027 89.9512 12.7027C90.7434 12.7027 91.4311 12.8713 92.0143 13.2084C92.5975 13.5456 93.0321 13.9698 93.3182 14.481V12.8495H94.8367V21.7899H93.3182V20.1258C93.0211 20.6479 92.5755 21.0829 91.9813 21.431C91.3981 21.7681 90.7159 21.9367 89.9347 21.9367C89.1314 21.9367 88.4052 21.7409 87.756 21.3494C87.1068 20.9578 86.5952 20.4086 86.221 19.7016C85.8469 18.9947 85.6599 18.1898 85.6599 17.2871ZM93.3182 17.3034C93.3182 16.629 93.1807 16.0417 92.9056 15.5414C92.6305 15.0411 92.2564 14.6604 91.7833 14.3994C91.3211 14.1275 90.8095 13.9915 90.2483 13.9915C89.6871 13.9915 89.1755 14.122 88.7133 14.3831C88.2512 14.6441 87.8825 15.0248 87.6075 15.5251C87.3324 16.0254 87.1948 16.6127 87.1948 17.2871C87.1948 17.9723 87.3324 18.5705 87.6075 19.0817C87.8825 19.582 88.2512 19.9681 88.7133 20.24C89.1755 20.501 89.6871 20.6315 90.2483 20.6315C90.8095 20.6315 91.3211 20.501 91.7833 20.24C92.2564 19.9681 92.6305 19.582 92.9056 19.0817C93.1807 18.5705 93.3182 17.9777 93.3182 17.3034Z" stroke="white" stroke-width="0.4" mask="url(#path-1-outside-1_32_3009)"/>
<path d="M100.577 21.9367C99.8836 21.9367 99.262 21.8225 98.7118 21.5941C98.1616 21.3548 97.727 21.0285 97.4079 20.6152C97.0888 20.1911 96.9127 19.7071 96.8797 19.1632H98.4312C98.4752 19.6092 98.6843 19.9735 99.0584 20.2563C99.4435 20.5391 99.9442 20.6805 100.56 20.6805C101.133 20.6805 101.584 20.5554 101.914 20.3053C102.244 20.0551 102.409 19.7397 102.409 19.359C102.409 18.9675 102.233 18.6792 101.881 18.4943C101.529 18.2986 100.984 18.1082 100.247 17.9233C99.5756 17.7493 99.0254 17.5753 98.5963 17.4013C98.1781 17.2164 97.815 16.9499 97.5069 16.6019C97.2098 16.2429 97.0613 15.7752 97.0613 15.1988C97.0613 14.742 97.1988 14.3233 97.4739 13.9426C97.749 13.5619 98.1396 13.2628 98.6458 13.0453C99.1519 12.8169 99.7296 12.7027 100.379 12.7027C101.38 12.7027 102.189 12.9528 102.805 13.4531C103.421 13.9535 103.751 14.6387 103.795 15.5088H102.293C102.26 15.0411 102.068 14.6659 101.716 14.3831C101.375 14.1003 100.912 13.9589 100.329 13.9589C99.7901 13.9589 99.361 14.0731 99.0419 14.3015C98.7228 14.5299 98.5632 14.829 98.5632 15.1988C98.5632 15.4925 98.6568 15.7372 98.8438 15.933C99.0419 16.1179 99.284 16.2701 99.5701 16.3898C99.8671 16.4985 100.274 16.6236 100.791 16.765C101.441 16.939 101.969 17.113 102.376 17.2871C102.783 17.4502 103.13 17.7004 103.416 18.0375C103.713 18.3747 103.867 18.8152 103.878 19.359C103.878 19.8484 103.74 20.2889 103.465 20.6805C103.19 21.072 102.8 21.382 102.293 21.6104C101.798 21.8279 101.226 21.9367 100.577 21.9367Z" stroke="white" stroke-width="0.4" mask="url(#path-1-outside-1_32_3009)"/>
<path d="M114.251 16.9771C114.251 17.2599 114.234 17.559 114.201 17.8744H106.972C107.027 18.7554 107.33 19.446 107.88 19.9463C108.441 20.4358 109.118 20.6805 109.91 20.6805C110.559 20.6805 111.098 20.5337 111.527 20.24C111.967 19.9355 112.276 19.533 112.452 19.0327H114.069C113.827 19.892 113.343 20.5935 112.617 21.1373C111.89 21.6702 110.988 21.9367 109.91 21.9367C109.052 21.9367 108.281 21.7464 107.599 21.3657C106.928 20.985 106.4 20.4466 106.015 19.7506C105.63 19.0436 105.437 18.2279 105.437 17.3034C105.437 16.3789 105.624 15.5686 105.998 14.8725C106.372 14.1764 106.895 13.6435 107.566 13.2737C108.248 12.893 109.03 12.7027 109.91 12.7027C110.768 12.7027 111.527 12.8876 112.188 13.2574C112.848 13.6272 113.354 14.1384 113.706 14.7909C114.069 15.4326 114.251 16.1614 114.251 16.9771ZM112.699 16.6671C112.699 16.1015 112.573 15.6175 112.32 15.2151C112.067 14.8018 111.72 14.4918 111.28 14.2852C110.851 14.0677 110.372 13.9589 109.844 13.9589C109.085 13.9589 108.435 14.1982 107.896 14.6767C107.368 15.1553 107.065 15.8188 106.988 16.6671H112.699Z" stroke="white" stroke-width="0.4" mask="url(#path-1-outside-1_32_3009)"/>
<path d="M20.6712 23.612H28.0403C29.6275 23.612 30.8746 22.1839 30.8746 20.5177C30.8746 18.8516 29.6275 17.4235 28.0403 17.4235C27.4735 17.4235 26.9066 17.4235 26.3398 17.4235C28.6072 12.306 27.4735 1 17.27 1C10.4677 1 7.06654 5.16537 7.06654 13.6151H5.93282C3.43864 13.6151 1.39795 15.8763 1.39795 18.6136C1.39795 21.3508 3.43864 23.612 5.93282 23.612H11.6014H20.6712Z" stroke="white" stroke-width="2" stroke-linecap="round" stroke-linejoin="round"/>
<path d="M17.2193 12.1569L15.307 12.7922L14.3535 9.95404L16.2363 9.32857C16.6279 9.19849 17.0441 9.22539 17.4096 9.40277L17.4097 9.40282C17.7753 9.57997 18.0447 9.88532 18.1717 10.2633C18.2986 10.6412 18.2678 11.0459 18.0827 11.406L18.0826 11.4062C17.9024 11.7578 17.5975 12.0232 17.2193 12.1569ZM13.0562 10.3844L13.4549 10.2519L15.7998 17.2314L15.401 17.3639C15.158 17.4446 15.0168 17.707 15.1009 17.9573C15.185 18.2075 15.4564 18.3328 15.6995 18.2521L17.3655 17.6986L17.4944 18.0825C17.5785 18.3327 17.8499 18.4581 18.093 18.3773C18.336 18.2966 18.4772 18.0341 18.3931 17.7839L18.2642 17.4001L18.6464 17.2731L18.7754 17.6569C18.8594 17.9071 19.1309 18.0325 19.3739 17.9518C19.6174 17.8709 19.7577 17.6082 19.6738 17.3585L19.5447 16.9745C20.9399 16.4938 21.7045 15.0005 21.2395 13.6163C20.8927 12.584 19.9619 11.9122 18.9286 11.8239C19.2136 11.2661 19.2843 10.6025 19.0701 9.9648C18.7169 8.91357 17.7038 8.26948 16.6348 8.31276L16.4741 7.83449L16.4741 7.83445C16.3902 7.58479 16.1192 7.45904 15.8759 7.53986C15.6331 7.62052 15.4917 7.88281 15.5757 8.13295L15.705 8.51769L15.3227 8.64469L15.1934 8.25999C15.1934 8.25998 15.1934 8.25996 15.1934 8.25995C15.1094 8.00978 14.8378 7.88474 14.595 7.9654C14.3522 8.04607 14.2107 8.30835 14.2947 8.5585L14.424 8.94324L13.9197 9.11077L13.9195 9.11017L13.6823 9.18899L12.7578 9.4961C12.5147 9.57685 12.3736 9.83933 12.4577 10.0895C12.5417 10.3397 12.8132 10.4651 13.0562 10.3844ZM20.2394 15.2251L20.2393 15.2252C20.0276 15.638 19.6653 15.9472 19.2169 16.0962L16.6981 16.9329L15.6056 13.6808L17.4883 13.0553C17.501 13.0511 17.5131 13.0467 17.522 13.0434L18.1241 12.8434C18.5724 12.6945 19.049 12.7255 19.4679 12.9288L19.468 12.9288C19.8868 13.1318 20.1956 13.4817 20.3411 13.9148C20.4867 14.3482 20.4513 14.8122 20.2394 15.2251Z" fill="white" stroke="white" stroke-width="0.5"/>
</svg>
