<svg width="28" height="27" viewBox="0 0 28 27" fill="none" xmlns="http://www.w3.org/2000/svg">
<g clip-path="url(#clip0_32_2875)">
<path d="M26.7145 24.5394H2.04204C1.36037 24.5394 0.808105 25.0886 0.808105 25.767C0.808105 26.4443 1.36037 26.9935 2.04204 26.9935H26.7139C27.3956 26.9935 27.9478 26.4443 27.9478 25.767C27.9472 25.0886 27.395 24.5394 26.7145 24.5394Z" fill="url(#paint0_linear_32_2875)"/>
<path d="M3.58404 21.3496C2.90237 21.3496 2.3501 21.8988 2.3501 22.5766C2.3501 23.2545 2.90237 23.8042 3.58404 23.8042H25.1722C25.8538 23.8042 26.4061 23.2545 26.4061 22.5766C26.4061 21.8988 25.8538 21.3496 25.1722 21.3496H24.8643V10.3085H25.1722C25.5136 10.3085 25.7886 10.0339 25.7886 9.69559C25.7886 9.35723 25.5124 9.08264 25.1722 9.08264H3.58404C3.2432 9.08264 2.96764 9.35723 2.96764 9.69559C2.96764 10.0339 3.24378 10.3085 3.58404 10.3085H3.89252V21.349H3.58404V21.3496ZM22.3964 10.3085V21.349H18.6957V10.3085H22.3964ZM16.2279 10.3085V21.349H12.5272V10.3085H16.2279ZM6.35924 10.3085H10.0599V21.349H6.35924V10.3085Z" fill="url(#paint1_linear_32_2875)"/>
<path d="M2.04207 7.97926H26.7139C26.718 7.97926 26.7226 7.97926 26.726 7.97926C27.4083 7.97926 27.96 7.43008 27.96 6.75223C27.96 6.21339 27.6111 5.75669 27.1264 5.59125L14.8852 0.113814C14.5634 -0.0298 14.1954 -0.0298 13.8731 0.113814L1.53601 5.63376C1.00512 5.87158 0.713388 6.44489 0.835858 7.01016C0.95775 7.57542 1.46034 7.97926 2.04207 7.97926Z" fill="url(#paint2_linear_32_2875)"/>
</g>
<defs>
<linearGradient id="paint0_linear_32_2875" x1="15.7349" y1="24.1531" x2="15.7475" y2="28.5049" gradientUnits="userSpaceOnUse">
<stop stop-color="#FD749B"/>
<stop offset="1" stop-color="#281AC8"/>
</linearGradient>
<linearGradient id="paint1_linear_32_2875" x1="15.5809" y1="6.76536" x2="16.0895" y2="32.8609" gradientUnits="userSpaceOnUse">
<stop stop-color="#FD749B"/>
<stop offset="1" stop-color="#281AC8"/>
</linearGradient>
<linearGradient id="paint2_linear_32_2875" x1="15.7416" y1="-1.24893" x2="15.8739" y2="12.8884" gradientUnits="userSpaceOnUse">
<stop stop-color="#FD749B"/>
<stop offset="1" stop-color="#281AC8"/>
</linearGradient>
<clipPath id="clip0_32_2875">
<rect width="27.1518" height="27" fill="white" transform="translate(0.808105)"/>
</clipPath>
</defs>
</svg>
