<svg width="59" height="59" viewBox="0 0 59 59" fill="none" xmlns="http://www.w3.org/2000/svg">
<g clip-path="url(#clip0_32_2922)">
<path d="M29.8126 0.358317C13.7052 0.344837 0.64052 13.3186 0.626964 29.3359C0.613407 45.3532 13.6601 58.3448 29.7675 58.3583C45.8727 58.3448 58.9283 45.3735 58.9532 29.3583C58.9532 13.35 45.911 0.371798 29.8126 0.358317ZM29.7675 53.5325C16.3417 53.5325 5.45744 42.7091 5.45744 29.3583C5.45744 16.0076 16.3417 5.18421 29.7675 5.18421C43.1888 5.19769 54.064 16.0121 54.0776 29.3583C54.0776 42.7091 43.1933 53.5325 29.7675 53.5325Z" fill="url(#paint0_linear_32_2922)"/>
<path d="M37.6448 27.9442C39.5951 26.851 40.6492 24.6626 40.2858 22.4673C39.8343 19.0781 35.7714 17.7986 32.5661 17.5293V12.4341H29.406V17.4844H27.2843V12.4341H24.1242V17.4844H17.7588V20.7391H20.1289C21.1898 20.7391 21.7089 21.0534 21.7089 21.9063V35.89C21.7089 37.0572 21.122 37.4164 20.49 37.4164H18.0748V40.7384H24.2144V45.9009H27.3971V40.7384H29.5188V45.9009H32.6112V40.7384H33.2884C39.7891 40.7384 41.9561 37.5735 41.9561 33.264C41.9041 30.7229 40.1322 28.5367 37.6448 27.9442ZM27.2842 20.9411H29.5414C31.1214 20.9411 34.2364 21.2105 34.2364 23.7693C34.3447 25.4393 33.1281 26.9028 31.46 27.1137H27.2842V20.9411ZM30.7828 37.102V37.0796H27.2842V30.3458H31.3472C32.2952 30.3458 35.8616 30.6601 35.8616 33.174C35.8616 35.6879 34.1687 37.102 30.7828 37.102Z" fill="url(#paint1_linear_32_2922)"/>
</g>
<defs>
<linearGradient id="paint0_linear_32_2922" x1="32.7064" y1="-8.77133" x2="35.9604" y2="93.9756" gradientUnits="userSpaceOnUse">
<stop stop-color="#FD749B"/>
<stop offset="1" stop-color="#281AC8"/>
</linearGradient>
<linearGradient id="paint1_linear_32_2922" x1="31.0673" y1="7.16622" x2="33.6763" y2="66.3971" gradientUnits="userSpaceOnUse">
<stop stop-color="#FD749B"/>
<stop offset="1" stop-color="#281AC8"/>
</linearGradient>
<clipPath id="clip0_32_2922">
<rect width="58.3262" height="58" fill="white" transform="translate(0.626953 0.358398)"/>
</clipPath>
</defs>
</svg>
