<svg width="28" height="28" viewBox="0 0 28 28" fill="none" xmlns="http://www.w3.org/2000/svg">
<g clip-path="url(#clip0_32_2851)">
<path d="M14.3701 -0.000117003C6.87186 -0.00662482 0.790007 6.25657 0.783696 13.9891C0.777386 21.7215 6.85086 27.9934 14.3491 27.9999C21.8464 27.9934 27.924 21.7313 27.9355 13.9999C27.9355 6.27172 21.8642 0.00639081 14.3701 -0.000117003ZM14.3491 25.6702C8.09916 25.6702 3.03237 20.4451 3.03237 13.9999C3.03237 7.55469 8.09916 2.32963 14.3491 2.32963C20.597 2.33613 25.6596 7.55687 25.6659 13.9999C25.6659 20.4451 20.5991 25.6702 14.3491 25.6702Z" fill="url(#paint0_linear_32_2851)"/>
<path d="M18.0161 13.3173C18.924 12.7896 19.4147 11.7331 19.2455 10.6733C19.0353 9.03713 17.144 8.41944 15.6519 8.28945V5.82971H14.1808V8.26779H13.1931V5.82971H11.722V8.26779H8.75879V9.83902H9.8621C10.356 9.83902 10.5976 9.99072 10.5976 10.4025V17.1532C10.5976 17.7167 10.3244 17.8901 10.0302 17.8901H8.9059V19.4938H11.764V21.9861H13.2456V19.4938H14.2333V21.9861H15.6729V19.4938H15.9881C19.0143 19.4938 20.023 17.966 20.023 15.8855C19.9989 14.6588 19.174 13.6034 18.0161 13.3173ZM13.193 9.93652H14.2438C14.9793 9.93652 16.4294 10.0666 16.4294 11.3019C16.4798 12.1081 15.9135 12.8146 15.1369 12.9164H13.193C13.193 12.9164 13.193 9.93652 13.193 9.93652ZM14.8217 17.7383V17.7275H13.193V14.4767H15.0844C15.5258 14.4767 17.1859 14.6284 17.1859 15.8421C17.1859 17.0557 16.3979 17.7383 14.8217 17.7383Z" fill="url(#paint1_linear_32_2851)"/>
</g>
<defs>
<linearGradient id="paint0_linear_32_2851" x1="15.7172" y1="-4.40753" x2="17.3462" y2="45.1907" gradientUnits="userSpaceOnUse">
<stop stop-color="#FD749B"/>
<stop offset="1" stop-color="#281AC8"/>
</linearGradient>
<linearGradient id="paint1_linear_32_2851" x1="14.9541" y1="3.28658" x2="16.2601" y2="31.8766" gradientUnits="userSpaceOnUse">
<stop stop-color="#FD749B"/>
<stop offset="1" stop-color="#281AC8"/>
</linearGradient>
<clipPath id="clip0_32_2851">
<rect width="27.1518" height="28" fill="white" transform="translate(0.783691)"/>
</clipPath>
</defs>
</svg>
