<svg width="16" height="11" viewBox="0 0 16 11" fill="none" xmlns="http://www.w3.org/2000/svg">
<path d="M0.878341 3.84489H11.9626V5.38289C11.9626 5.45232 11.988 5.51231 12.0389 5.56312C12.09 5.6139 12.1505 5.63924 12.2203 5.63924C12.2955 5.63924 12.3573 5.61525 12.4054 5.56716L14.9832 3.00388C15.0314 2.95582 15.0555 2.89437 15.0555 2.81969C15.0555 2.74486 15.0314 2.68339 14.983 2.63544L12.4136 0.0801288C12.3491 0.0266535 12.2846 0 12.2201 0C12.145 0 12.0831 0.0240163 12.0349 0.0720488C11.9866 0.120165 11.9625 0.181496 11.9625 0.256294V1.79429H0.878341C0.808539 1.79429 0.748133 1.81962 0.697122 1.87037C0.646111 1.92113 0.620605 1.98117 0.620605 2.05058V3.58857C0.620605 3.65798 0.646083 3.71805 0.697122 3.76878C0.748161 3.8195 0.808539 3.84489 0.878341 3.84489Z" fill="url(#paint0_linear_32_2832)"/>
<path d="M14.7974 6.92105H3.71328V5.383C3.71328 5.31359 3.68774 5.25352 3.63676 5.2028C3.58572 5.15204 3.52529 5.12671 3.45551 5.12671C3.38027 5.12671 3.31856 5.15072 3.27023 5.19876L0.692571 7.7619C0.644353 7.8101 0.620117 7.87137 0.620117 7.94628C0.620117 8.01561 0.64424 8.07444 0.692571 8.12234L3.26222 10.6857C3.32669 10.7391 3.39113 10.7657 3.4556 10.7657C3.52537 10.7657 3.58581 10.7404 3.63682 10.6897C3.6878 10.6389 3.71333 10.5789 3.71333 10.5094V8.97149H14.7974C14.8673 8.97149 14.9275 8.94627 14.9787 8.89546C15.0297 8.84465 15.0551 8.78466 15.0551 8.71514V7.1772C15.0551 7.10776 15.0296 7.04778 14.9787 6.99708C14.9275 6.94638 14.8673 6.92105 14.7974 6.92105Z" fill="url(#paint1_linear_32_2832)"/>
<defs>
<linearGradient id="paint0_linear_32_2832" x1="8.55981" y1="-0.887657" x2="8.68421" y2="9.11071" gradientUnits="userSpaceOnUse">
<stop stop-color="#FD749B"/>
<stop offset="1" stop-color="#281AC8"/>
</linearGradient>
<linearGradient id="paint1_linear_32_2832" x1="8.55935" y1="4.23909" x2="8.68374" y2="14.237" gradientUnits="userSpaceOnUse">
<stop stop-color="#FD749B"/>
<stop offset="1" stop-color="#281AC8"/>
</linearGradient>
</defs>
</svg>
