<svg width="226" height="41" viewBox="0 0 226 41" fill="none" xmlns="http://www.w3.org/2000/svg">
<path d="M0.704852 7.29595C3.59828 8.54815 13.3675 12.7268 16.5822 13.4631C18.7323 13.9564 23.2409 13.9303 25.4101 13.5187C28.703 12.8935 38.4774 8.57767 41.0218 7.4401C41.0339 7.43489 41.0496 7.42794 41.0617 7.42273C41.0912 7.41057 41.1156 7.39842 41.1433 7.38626C39.8373 6.88434 35.7195 5.27784 24.8492 0.901233C22.1485 -0.185972 19.6285 -0.383962 16.6065 0.831763C6.02799 5.0868 1.97094 6.69677 0.581543 7.24211C0.607594 7.25253 0.631909 7.26469 0.65796 7.27511C0.675328 7.28379 0.689221 7.289 0.704852 7.29595Z" fill="#EB242A"/>
<path d="M20.3547 40.4522C20.3113 37.6178 20.0873 26.1761 19.2067 22.8172C18.6979 20.8773 16.5773 17.2978 15.1358 15.9032C12.7669 13.6142 2.79617 9.10386 0.147624 7.92634C0.0955213 7.90376 0.0468923 7.88118 0 7.86034C0.284827 9.59015 0.435924 10.8423 2.93684 22.9579C4.05358 28.3731 4.14736 28.981 6.95395 30.9921C16.2942 37.6873 19.3787 39.9451 20.3582 40.6728C20.3582 40.6155 20.3564 40.5529 20.3547 40.4835C20.3564 40.473 20.3564 40.4626 20.3547 40.4522Z" fill="#EB242A"/>
<path d="M41.419 8.16561C41.4138 8.16735 41.4086 8.17082 41.4051 8.17256C39.0101 9.26845 29.5605 13.652 27.103 15.7569C25.4913 17.1377 23.1293 20.8439 22.4502 22.8533C21.3387 26.1497 21.2345 37.6574 21.2258 40.4674C21.2258 40.4813 21.2258 40.4935 21.2258 40.5074C21.2258 40.5768 21.2258 40.6394 21.2258 40.6967C22.6413 39.6981 27.499 36.2315 34.7325 30.6513C37.2734 28.6923 37.4714 27.5252 38.2859 23.9284C39.816 17.1568 41.2019 10.0239 41.5718 8.09267C41.5232 8.11872 41.4763 8.13956 41.419 8.16561Z" fill="#EB242A"/>
<path d="M65.2186 14.3198H68.8032C69.0342 14.3198 69.2235 14.5074 69.2235 14.7401V30.2076C69.2235 30.4386 69.0359 30.6279 68.8032 30.6279H65.6076C65.4773 30.6279 65.354 30.5671 65.2759 30.4646L59.1486 22.519C58.9037 22.2012 58.3966 22.3749 58.3966 22.776V30.2093C58.3966 30.4403 58.209 30.6296 57.9763 30.6296H54.3917C54.1607 30.6296 53.9714 30.4421 53.9714 30.2093V14.7401C53.9714 14.5091 54.1589 14.3198 54.3917 14.3198H57.6099C57.7401 14.3198 57.8634 14.3806 57.9433 14.4831L64.048 22.4252C64.2929 22.743 64.8 22.5711 64.8 22.1699V14.7401C64.8 14.5091 64.9876 14.3198 65.2186 14.3198Z" fill="#EB242A"/>
<path d="M87.5389 16.3948C89.3 18.0881 90.1805 20.1149 90.1805 22.4717C90.1805 24.8319 89.2982 26.8552 87.5389 28.5521C85.7761 30.2471 83.6295 31.0947 81.1008 31.0947C78.5721 31.0947 76.4272 30.2489 74.6627 28.5521C72.9016 26.857 72.0211 24.8319 72.0211 22.4717C72.0211 20.1149 72.9033 18.0881 74.6627 16.3948C76.4255 14.6997 78.5721 13.8522 81.1008 13.8522C83.6295 13.8539 85.7744 14.6997 87.5389 16.3948ZM77.8635 19.1458C76.9934 20.0298 76.5557 21.1396 76.5557 22.4717C76.5557 23.8073 76.9916 24.9188 77.8635 25.8063C78.7371 26.6937 79.8173 27.1349 81.106 27.1349C82.3947 27.1349 83.4749 26.692 84.3433 25.8063C85.2117 24.9205 85.6459 23.8073 85.6459 22.4717C85.6459 21.1396 85.2117 20.0298 84.3433 19.1458C83.4749 18.2635 82.3947 17.8224 81.106 17.8224C79.8173 17.8224 78.7371 18.2653 77.8635 19.1458Z" fill="#EB242A"/>
<path d="M96.1345 30.3481L90.6116 14.8806C90.5144 14.6079 90.7158 14.3196 91.0076 14.3196H94.8788C95.0629 14.3196 95.2244 14.4394 95.28 14.6131L98.2915 24.2156C98.4148 24.6081 98.9706 24.6081 99.0922 24.2156L102.092 14.6131C102.147 14.4377 102.309 14.3179 102.493 14.3179H106.364C106.654 14.3179 106.857 14.6062 106.76 14.8788L101.237 30.3463C101.178 30.5131 101.02 30.6242 100.841 30.6242H96.5287C96.3516 30.6277 96.1935 30.5165 96.1345 30.3481Z" fill="#EB242A"/>
<path d="M116.31 27.1369H111.557C111.376 27.1369 111.215 27.2533 111.159 27.4252L110.192 30.3412C110.134 30.5131 109.975 30.6295 109.794 30.6295H105.928C105.634 30.6295 105.431 30.336 105.535 30.0616L111.392 14.5941C111.454 14.4308 111.611 14.3232 111.784 14.3232H116.097C116.27 14.3232 116.427 14.4308 116.489 14.5941L122.345 30.0616C122.45 30.336 122.246 30.6295 121.953 30.6295H118.085C117.905 30.6295 117.745 30.5149 117.687 30.3429L116.71 27.4252C116.652 27.2515 116.491 27.1369 116.31 27.1369ZM114.879 23.6443C115.162 23.6443 115.365 23.3681 115.279 23.0972L113.941 18.8682L112.601 23.0955C112.515 23.3664 112.717 23.6426 113 23.6426H114.879V23.6443Z" fill="#EB242A"/>
<path d="M132.594 30.6293H125.211C124.98 30.6293 124.791 30.4417 124.791 30.209V14.7415C124.791 14.5105 124.978 14.3212 125.211 14.3212H132.129C133.805 14.3212 135.152 14.7484 136.177 15.6047C137.198 16.4626 137.712 17.4717 137.712 18.6301C137.712 19.0799 137.639 19.5037 137.495 19.9101C137.353 20.3165 137.177 20.6395 136.974 20.8809C136.769 21.1258 136.566 21.3359 136.366 21.5131C136.165 21.6902 135.988 21.8205 135.837 21.8952L135.621 22.0081C135.696 22.0376 135.802 22.081 135.934 22.14C136.066 22.1974 136.3 22.3276 136.634 22.5378C136.967 22.7444 137.262 22.9824 137.521 23.2481C137.78 23.5138 138.011 23.8768 138.221 24.3405C138.428 24.8025 138.534 25.3061 138.534 25.8515C138.534 27.1263 137.98 28.2395 136.868 29.1947C135.755 30.1499 134.329 30.6293 132.594 30.6293ZM129.216 26.7181C129.216 26.9491 129.404 27.1384 129.636 27.1384H132.241C132.757 27.1384 133.178 26.9821 133.502 26.673C133.827 26.3603 133.992 25.9731 133.992 25.5059C133.992 25.0404 133.829 24.6514 133.502 24.3405C133.178 24.0279 132.757 23.8733 132.241 23.8733H129.636C129.405 23.8733 129.216 24.0609 129.216 24.2936V26.7181ZM131.661 17.8242H129.636C129.405 17.8242 129.216 18.0118 129.216 18.2445V20.1914C129.216 20.4224 129.404 20.6117 129.636 20.6117H131.661C132.123 20.6117 132.493 20.4849 132.764 20.2296C133.039 19.9761 133.176 19.6374 133.176 19.2188C133.176 18.7985 133.039 18.4599 132.764 18.208C132.492 17.951 132.123 17.8242 131.661 17.8242Z" fill="#EB242A"/>
<path d="M141.323 30.209V14.7415C141.323 14.5105 141.511 14.3212 141.743 14.3212H149.013C150.734 14.3212 152.152 14.8561 153.27 15.9294C154.389 17.0027 154.948 18.3314 154.948 19.9153C154.948 20.5665 154.85 21.1761 154.658 21.7406C154.465 22.305 154.232 22.7618 153.958 23.1144C153.687 23.4669 153.412 23.7674 153.14 24.0123C152.865 24.2589 152.64 24.4291 152.457 24.5177L152.15 24.6896L155.17 29.9971C155.33 30.2767 155.127 30.6241 154.805 30.6241H151.123C150.971 30.6241 150.828 30.5407 150.755 30.4052L148.197 25.7143C148.124 25.5788 147.982 25.4954 147.829 25.4954H146.167C145.936 25.4954 145.746 25.683 145.746 25.9157V30.2055C145.746 30.4365 145.559 30.6258 145.326 30.6258H141.742C141.511 30.6293 141.323 30.4417 141.323 30.209ZM150.034 21.0754C150.359 20.7663 150.524 20.3755 150.524 19.9101C150.524 19.4446 150.361 19.0573 150.034 18.7516C149.71 18.4425 149.289 18.2897 148.774 18.2897H146.168C145.937 18.2897 145.748 18.4772 145.748 18.71V21.124C145.748 21.355 145.936 21.5443 146.168 21.5443H148.774C149.289 21.5443 149.708 21.388 150.034 21.0754Z" fill="#EB242A"/>
<path d="M172.959 16.3967C174.724 18.0918 175.603 20.1186 175.603 22.4753C175.603 24.8338 174.724 26.8589 172.959 28.5539C171.198 30.249 169.052 31.0948 166.523 31.0948C163.994 31.0948 161.849 30.2473 160.087 28.5539C158.322 26.8589 157.443 24.8338 157.443 22.4753C157.443 20.1186 158.322 18.0918 160.087 16.3967C161.848 14.7016 163.994 13.8558 166.523 13.8558C169.052 13.8541 171.198 14.7016 172.959 16.3967ZM163.287 19.1494C162.415 20.0317 161.98 21.1398 161.98 22.4736C161.98 23.8109 162.415 24.9189 163.287 25.8064C164.159 26.6939 165.239 27.1385 166.528 27.1385C167.817 27.1385 168.895 26.6939 169.764 25.8064C170.632 24.9189 171.066 23.8109 171.066 22.4736C171.066 21.1398 170.634 20.0317 169.764 19.1494C168.895 18.2654 167.817 17.8243 166.528 17.8243C165.239 17.8243 164.159 18.2654 163.287 19.1494Z" fill="#EB242A"/>
<path d="M184.212 24.865L182.931 26.3152C182.863 26.3916 182.825 26.4906 182.825 26.5931V30.2107C182.825 30.4417 182.637 30.631 182.404 30.631H178.82C178.589 30.631 178.399 30.4434 178.399 30.2107V14.7415C178.399 14.5105 178.587 14.3212 178.82 14.3212H182.404C182.635 14.3212 182.825 14.5088 182.825 14.7415V19.4707C182.825 19.8614 183.311 20.0403 183.564 19.7433L188.057 14.4706C188.137 14.3768 188.254 14.3229 188.377 14.3229H192.396C192.755 14.3229 192.948 14.745 192.714 15.0176L187.696 20.8375C187.573 20.9799 187.561 21.1848 187.663 21.3429L193.349 29.9815C193.533 30.2611 193.334 30.6328 192.998 30.6328H188.874C188.733 30.6328 188.601 30.5615 188.523 30.4434L184.877 24.9154C184.725 24.6809 184.396 24.6566 184.212 24.865Z" fill="#EB242A"/>
<path d="M201.34 26.8987H208.881C209.112 26.8987 209.302 27.0863 209.302 27.319V30.209C209.302 30.44 209.114 30.6293 208.881 30.6293H196.917C196.686 30.6293 196.496 30.4417 196.496 30.209V14.7415C196.496 14.5105 196.684 14.3212 196.917 14.3212H208.655C208.886 14.3212 209.076 14.5088 209.076 14.7415V17.6314C209.076 17.8624 208.888 18.0517 208.655 18.0517H201.34C201.109 18.0517 200.92 18.2393 200.92 18.472V20.1897C200.92 20.4207 201.108 20.61 201.34 20.61H206.788C207.019 20.61 207.209 20.7975 207.209 21.0303V23.6927C207.209 23.9237 207.021 24.113 206.788 24.113H201.34C201.109 24.113 200.92 24.3006 200.92 24.5333V26.4802C200.92 26.7112 201.108 26.8987 201.34 26.8987Z" fill="#EB242A"/>
<path d="M212.097 30.209V14.7415C212.097 14.5105 212.285 14.3212 212.518 14.3212H219.788C221.509 14.3212 222.926 14.8561 224.044 15.9294C225.163 17.0027 225.722 18.3314 225.722 19.9153C225.722 20.5665 225.625 21.1761 225.432 21.7406C225.239 22.305 225.007 22.7618 224.732 23.1144C224.461 23.4669 224.187 23.7674 223.914 24.0123C223.64 24.2589 223.414 24.4291 223.232 24.5177L222.924 24.6896L225.944 29.9971C226.104 30.2767 225.901 30.6241 225.58 30.6241H221.898C221.745 30.6241 221.602 30.5407 221.53 30.4052L218.971 25.7143C218.898 25.5788 218.756 25.4954 218.603 25.4954H216.941C216.71 25.4954 216.521 25.683 216.521 25.9157V30.2055C216.521 30.4365 216.333 30.6258 216.1 30.6258H212.516C212.285 30.6293 212.097 30.4417 212.097 30.209ZM220.809 21.0754C221.134 20.7663 221.299 20.3755 221.299 19.9101C221.299 19.4446 221.135 19.0573 220.809 18.7516C220.484 18.4425 220.064 18.2897 219.548 18.2897H216.943C216.712 18.2897 216.522 18.4772 216.522 18.71V21.124C216.522 21.355 216.71 21.5443 216.943 21.5443H219.548C220.064 21.5443 220.484 21.388 220.809 21.0754Z" fill="#EB242A"/>
</svg>
