<svg width="21" height="20" viewBox="0 0 21 20" fill="none" xmlns="http://www.w3.org/2000/svg">
<path fill-rule="evenodd" clip-rule="evenodd" d="M17.3324 14.8151C16.8037 14.1413 15.9451 13.1651 15.2101 13.0726C14.763 13.0163 14.2491 13.3913 13.7426 13.7451C13.6438 13.7951 12.8804 14.2551 12.7877 14.2826C12.2985 14.4238 11.2547 14.4651 10.6235 13.8826C10.0157 13.3201 9.05466 12.2788 8.2789 11.3251C7.53772 10.3426 6.76072 9.16133 6.36296 8.43633C5.9479 7.68508 6.24684 6.69133 6.50378 6.25383C6.55072 6.17508 7.11896 5.58383 7.24619 5.44633L7.26472 5.46883C7.73537 5.06883 8.22825 4.66258 8.28384 4.22258C8.37525 3.49008 7.63531 2.42383 7.1066 1.74883C6.5779 1.07258 5.7589 -0.111171 4.64343 0.0563291C4.22343 0.118829 3.86149 0.267579 3.50449 0.481329L3.4946 0.470079L3.43531 0.516329L3.40443 0.532579L3.40813 0.537579C3.20307 0.697579 2.61754 1.14008 2.55084 1.20008C1.82696 1.85133 0.737427 3.38508 1.5799 6.14383C2.20496 8.19383 3.53784 10.6013 5.35372 13.0363L5.34384 13.0451C5.43278 13.1626 5.52419 13.2688 5.61684 13.3826C5.70331 13.4988 5.78854 13.6138 5.87749 13.7288L5.88984 13.7201C7.8169 16.0688 9.83784 17.9463 11.6821 19.0538C14.1651 20.5438 15.9303 19.8726 16.7456 19.3388C16.8222 19.2876 17.4053 18.8288 17.6029 18.6776L17.6078 18.6826C17.6152 18.6751 17.6202 18.6651 17.6301 18.6576C17.6479 18.644 17.6656 18.6302 17.6832 18.6163L17.6758 18.6063C17.9747 18.3138 18.2144 18.0013 18.3799 17.6076C18.8135 16.5713 17.8611 15.4913 17.3324 14.8151Z" fill="#EB242A"/>
</svg>
