<svg width="213" height="429" viewBox="0 0 213 429" fill="none" xmlns="http://www.w3.org/2000/svg">
<mask id="path-1-inside-1_81_2607" fill="white">
<path d="M213 429C156.509 429 102.332 406.401 62.3863 366.174C22.4411 325.948 5.30454e-05 271.389 -9.37596e-06 214.5C-7.17974e-05 157.611 22.4408 103.052 62.386 62.8259C102.331 22.5993 156.508 0.000149364 213 2.12076e-05L213 214.5L213 429Z"/>
</mask>
<path d="M213 429C156.509 429 102.332 406.401 62.3863 366.174C22.4411 325.948 5.30454e-05 271.389 -9.37596e-06 214.5C-7.17974e-05 157.611 22.4408 103.052 62.386 62.8259C102.331 22.5993 156.508 0.000149364 213 2.12076e-05L213 214.5L213 429Z" stroke="#514A7E" stroke-width="2" mask="url(#path-1-inside-1_81_2607)"/>
</svg>
