<svg width="34" height="31" viewBox="0 0 34 31" fill="none" xmlns="http://www.w3.org/2000/svg">
<path d="M16.7816 30.3308C16.5546 30.3301 16.3341 30.2542 16.1547 30.115C10.4403 25.675 6.50387 21.8517 3.74942 18.0797C0.23442 13.2594 -0.567247 8.80916 1.36498 4.85222C2.7422 2.02583 6.69914 -0.286672 11.3241 1.05972C13.5293 1.69667 15.4532 3.06263 16.7816 4.93444C18.1101 3.06263 20.034 1.69667 22.2391 1.05972C26.8539 -0.266117 30.8211 2.02583 32.1983 4.85222C34.1305 8.80916 33.3289 13.2594 29.8139 18.0797C27.0594 21.8517 23.123 25.675 17.4086 30.115C17.2292 30.2542 17.0087 30.3301 16.7816 30.3308ZM8.69303 2.73499C7.59254 2.69216 6.50117 2.94985 5.53605 3.48039C4.57094 4.01093 3.76854 4.79429 3.21498 5.74638C1.62192 9.01472 2.34137 12.653 5.41442 16.8567C8.68026 21.0691 12.5045 24.8172 16.7816 27.9978C21.0582 24.8204 24.8823 21.0757 28.1489 16.8669C31.2322 12.653 31.9414 9.01472 30.3483 5.75666C29.3205 3.70111 26.2372 2.06694 22.8044 3.03305C21.7037 3.35834 20.6833 3.91048 19.8089 4.65393C18.9344 5.39738 18.2253 6.31568 17.7272 7.34972C17.6498 7.53822 17.518 7.69945 17.3488 7.81292C17.1795 7.92639 16.9803 7.98697 16.7765 7.98697C16.5727 7.98697 16.3735 7.92639 16.2043 7.81292C16.035 7.69945 15.9032 7.53822 15.8258 7.34972C15.3314 6.31309 14.6235 5.39265 13.7486 4.64874C12.8736 3.90482 11.8512 3.35423 10.7486 3.03305C10.0805 2.83901 9.38871 2.7387 8.69303 2.73499Z" fill="#514A7E"/>
</svg>
