<svg width="18" height="18" viewBox="0 0 18 18" fill="none" xmlns="http://www.w3.org/2000/svg">
<path d="M9.00074 17.0166C8.87799 17.0162 8.75882 16.9752 8.66185 16.8999C5.57296 14.4999 3.44519 12.4333 1.9563 10.3944C0.0562956 7.78883 -0.377038 5.38328 0.667407 3.24439C1.41185 1.71661 3.55074 0.466611 6.05074 1.19439C7.24271 1.53869 8.28268 2.27705 9.00074 3.28883C9.71881 2.27705 10.7588 1.53869 11.9507 1.19439C14.4452 0.477722 16.5896 1.71661 17.3341 3.24439C18.3785 5.38328 17.9452 7.78883 16.0452 10.3944C14.5563 12.4333 12.4285 14.4999 9.33963 16.8999C9.24266 16.9752 9.12349 17.0162 9.00074 17.0166ZM4.62852 2.09994C4.03366 2.07679 3.44373 2.21608 2.92204 2.50286C2.40036 2.78964 1.96663 3.21308 1.66741 3.72772C0.806296 5.49439 1.19518 7.46105 2.8563 9.73328C4.62161 12.0103 6.68875 14.0363 9.00074 15.7555C11.3124 14.038 13.3795 12.0139 15.1452 9.73883C16.8119 7.46105 17.1952 5.49439 16.3341 3.73328C15.7785 2.62217 14.1119 1.73883 12.2563 2.26105C11.6613 2.43689 11.1097 2.73534 10.6371 3.13721C10.1644 3.53907 9.78111 4.03545 9.51185 4.59439C9.47 4.69628 9.39879 4.78343 9.30729 4.84477C9.21579 4.9061 9.10812 4.93885 8.99796 4.93885C8.88781 4.93885 8.78014 4.9061 8.68864 4.84477C8.59713 4.78343 8.52593 4.69628 8.48407 4.59439C8.21684 4.03405 7.8342 3.53652 7.36124 3.1344C6.88827 2.73228 6.33566 2.43467 5.73963 2.26105C5.37851 2.15617 5.00456 2.10195 4.62852 2.09994Z" fill="#121212"/>
</svg>
