<svg width="19" height="19" viewBox="0 0 19 19" fill="none" xmlns="http://www.w3.org/2000/svg">
<path d="M8.07184 1.80564C9.27524 1.80454 10.4519 2.16038 11.4531 2.82816C12.4542 3.49594 13.2348 4.44564 13.6961 5.55713C14.1573 6.66861 14.2786 7.89194 14.0445 9.07236C13.8104 10.2528 13.2315 11.3372 12.3809 12.1886C11.5304 13.0399 10.4464 13.6198 9.26624 13.855C8.08603 14.0902 6.86259 13.97 5.75068 13.5098C4.63878 13.0495 3.68836 12.2698 3.01967 11.2693C2.35098 10.2687 1.99406 9.09238 1.99406 7.88897C2.00135 6.27878 2.64385 4.73653 3.78192 3.59742C4.91999 2.45831 6.46165 1.8144 8.07184 1.80564ZM8.07184 0.666748C6.64341 0.666748 5.24707 1.09032 4.05938 1.88391C2.87169 2.6775 1.946 3.80546 1.39937 5.12514C0.852739 6.44483 0.709715 7.89698 0.988386 9.29796C1.26706 10.6989 1.95491 11.9858 2.96495 12.9959C3.975 14.0059 5.26188 14.6937 6.66285 14.9724C8.06382 15.2511 9.51597 15.1081 10.8357 14.5614C12.1553 14.0148 13.2833 13.0891 14.0769 11.9014C14.8705 10.7137 15.2941 9.31739 15.2941 7.88897C15.2941 5.97352 14.5331 4.13652 13.1787 2.78209C11.8243 1.42766 9.98729 0.666748 8.07184 0.666748Z" fill="#121212"/>
<path d="M18.4449 17.4945L14.3504 13.3723L13.5615 14.1556L17.656 18.2779C17.7074 18.3297 17.7685 18.3708 17.8359 18.399C17.9032 18.4272 17.9755 18.4418 18.0484 18.4421C18.1214 18.4423 18.1938 18.4282 18.2613 18.4005C18.3289 18.3728 18.3903 18.3321 18.4421 18.2806C18.4939 18.2292 18.535 18.1681 18.5632 18.1007C18.5914 18.0334 18.606 17.9612 18.6063 17.8882C18.6065 17.8152 18.5924 17.7428 18.5647 17.6753C18.537 17.6078 18.4963 17.5463 18.4449 17.4945Z" fill="#121212"/>
</svg>
