<svg width="16" height="18" viewBox="0 0 16 18" fill="none" xmlns="http://www.w3.org/2000/svg">
<path d="M8.00022 8.44453C8.76937 8.44453 9.52124 8.21645 10.1608 7.78913C10.8003 7.36182 11.2987 6.75445 11.5931 6.04385C11.8874 5.33325 11.9644 4.55132 11.8144 3.79695C11.6643 3.04258 11.2939 2.34965 10.7501 1.80578C10.2062 1.26191 9.51327 0.891527 8.7589 0.741474C8.00453 0.59142 7.22261 0.668433 6.512 0.962774C5.8014 1.25711 5.19404 1.75556 4.76672 2.39509C4.33941 3.03461 4.11133 3.78649 4.11133 4.55564C4.11133 5.58704 4.52105 6.57619 5.25036 7.3055C5.97967 8.03481 6.96882 8.44453 8.00022 8.44453ZM8.00022 1.77786C8.54961 1.77786 9.08666 1.94077 9.54347 2.246C10.0003 2.55123 10.3563 2.98506 10.5665 3.49263C10.7768 4.0002 10.8318 4.55872 10.7246 5.09756C10.6174 5.63639 10.3529 6.13135 9.9644 6.51982C9.57592 6.9083 9.08097 7.17286 8.54214 7.28004C8.0033 7.38722 7.44478 7.33221 6.93721 7.12197C6.42963 6.91173 5.99581 6.55569 5.69058 6.09889C5.38535 5.64209 5.22244 5.10503 5.22244 4.55564C5.22244 3.81893 5.5151 3.11239 6.03603 2.59145C6.55697 2.07052 7.2635 1.77786 8.00022 1.77786Z" fill="#121212"/>
<path d="M14.9273 12.5389C14.0364 11.5973 12.9628 10.8472 11.7721 10.3346C10.5814 9.822 9.29869 9.55762 8.00235 9.55762C6.70601 9.55762 5.42328 9.822 4.2326 10.3346C3.04192 10.8472 1.96829 11.5973 1.07735 12.5389C0.884185 12.7453 0.776907 13.0174 0.777345 13.3001V16.2223C0.777345 16.517 0.894408 16.7996 1.10278 17.008C1.31116 17.2163 1.59377 17.3334 1.88846 17.3334H14.1107C14.4054 17.3334 14.688 17.2163 14.8964 17.008C15.1047 16.7996 15.2218 16.517 15.2218 16.2223V13.3001C15.2237 13.0182 15.1185 12.7461 14.9273 12.5389ZM14.1107 16.2223H1.88846V13.2945C2.6758 12.4654 3.62362 11.8052 4.67421 11.3541C5.7248 10.903 6.85621 10.6703 7.99957 10.6703C9.14293 10.6703 10.2743 10.903 11.3249 11.3541C12.3755 11.8052 13.3233 12.4654 14.1107 13.2945V16.2223Z" fill="#121212"/>
</svg>
