<svg width="70" height="10" viewBox="0 0 70 10" fill="none" xmlns="http://www.w3.org/2000/svg">
<path d="M69.4447 4.66124C69.548 4.58433 69.6245 4.47704 69.6637 4.35441C69.7029 4.23178 69.7027 4.09996 69.6632 3.97744C69.6237 3.85491 69.5468 3.74783 69.4434 3.6712C69.3399 3.59457 69.2151 3.55223 69.0864 3.55013L66.5864 3.45568C66.5741 3.45484 66.5623 3.45045 66.5525 3.44306C66.5426 3.43567 66.5351 3.42558 66.5308 3.41402L65.6669 1.08068C65.6235 0.961973 65.5447 0.859467 65.4411 0.787045C65.3375 0.714622 65.2142 0.675781 65.0878 0.675781C64.9614 0.675781 64.838 0.714622 64.7344 0.787045C64.6309 0.859467 64.552 0.961973 64.5086 1.08068L63.6475 3.42235C63.6432 3.43391 63.6357 3.444 63.6259 3.45139C63.616 3.45878 63.6042 3.46317 63.5919 3.46402L61.0919 3.55846C60.9632 3.56056 60.8384 3.6029 60.7349 3.67953C60.6315 3.75616 60.5546 3.86325 60.5151 3.98577C60.4756 4.1083 60.4754 4.24011 60.5146 4.36274C60.5538 4.48537 60.6304 4.59266 60.7336 4.66957L62.6947 6.21124C62.7045 6.21896 62.7119 6.2294 62.7158 6.24124C62.7198 6.25309 62.7202 6.26584 62.7169 6.27791L62.0419 8.66957C62.007 8.79136 62.0104 8.92097 62.0517 9.04077C62.0929 9.16056 62.1701 9.26473 62.2727 9.3391C62.3753 9.41346 62.4983 9.45442 62.625 9.45639C62.7517 9.45837 62.876 9.42126 62.9808 9.35013L65.0531 7.96124C65.0633 7.95419 65.0754 7.95042 65.0878 7.95042C65.1002 7.95042 65.1123 7.95419 65.1225 7.96124L67.1947 9.35013C67.2982 9.42369 67.422 9.46322 67.5489 9.46322C67.6758 9.46322 67.7996 9.42369 67.9031 9.35013C68.0057 9.27646 68.083 9.17281 68.1242 9.05342C68.1655 8.93403 68.1688 8.80479 68.1336 8.68346L67.4531 6.28346C67.4495 6.27141 67.4497 6.25855 67.4536 6.24662C67.4576 6.23468 67.4652 6.22427 67.4753 6.2168L69.4447 4.66124Z" fill="#514A7E"/>
<path d="M39.4447 4.66124C39.548 4.58433 39.6245 4.47704 39.6637 4.35441C39.7029 4.23178 39.7027 4.09996 39.6632 3.97744C39.6237 3.85491 39.5468 3.74783 39.4434 3.6712C39.3399 3.59457 39.2151 3.55223 39.0864 3.55013L36.5864 3.45568C36.5741 3.45484 36.5623 3.45045 36.5525 3.44306C36.5426 3.43567 36.5351 3.42558 36.5308 3.41402L35.6669 1.08068C35.6235 0.961973 35.5447 0.859467 35.4411 0.787045C35.3375 0.714622 35.2142 0.675781 35.0878 0.675781C34.9614 0.675781 34.838 0.714622 34.7344 0.787045C34.6309 0.859467 34.552 0.961973 34.5086 1.08068L33.6475 3.42235C33.6432 3.43391 33.6357 3.444 33.6259 3.45139C33.616 3.45878 33.6042 3.46317 33.5919 3.46402L31.0919 3.55846C30.9632 3.56056 30.8384 3.6029 30.7349 3.67953C30.6315 3.75616 30.5546 3.86325 30.5151 3.98577C30.4756 4.1083 30.4754 4.24011 30.5146 4.36274C30.5538 4.48537 30.6304 4.59266 30.7336 4.66957L32.6947 6.21124C32.7045 6.21896 32.7119 6.2294 32.7158 6.24124C32.7198 6.25309 32.7202 6.26584 32.7169 6.27791L32.0419 8.66957C32.007 8.79136 32.0104 8.92097 32.0517 9.04077C32.0929 9.16056 32.1701 9.26473 32.2727 9.3391C32.3753 9.41346 32.4983 9.45442 32.625 9.45639C32.7517 9.45837 32.876 9.42126 32.9808 9.35013L35.0531 7.96124C35.0633 7.95419 35.0754 7.95042 35.0878 7.95042C35.1002 7.95042 35.1123 7.95419 35.1225 7.96124L37.1947 9.35013C37.2982 9.42369 37.422 9.46322 37.5489 9.46322C37.6758 9.46322 37.7996 9.42369 37.9031 9.35013C38.0057 9.27646 38.083 9.17281 38.1242 9.05342C38.1655 8.93403 38.1688 8.80479 38.1336 8.68346L37.4531 6.28346C37.4495 6.27141 37.4497 6.25855 37.4536 6.24662C37.4576 6.23468 37.4652 6.22427 37.4753 6.2168L39.4447 4.66124Z" fill="#514A7E"/>
<path d="M54.4447 4.66124C54.548 4.58433 54.6245 4.47704 54.6637 4.35441C54.7029 4.23178 54.7027 4.09996 54.6632 3.97744C54.6237 3.85491 54.5468 3.74783 54.4434 3.6712C54.3399 3.59457 54.2151 3.55223 54.0864 3.55013L51.5864 3.45568C51.5741 3.45484 51.5623 3.45045 51.5525 3.44306C51.5426 3.43567 51.5351 3.42558 51.5308 3.41402L50.6669 1.08068C50.6235 0.961973 50.5447 0.859467 50.4411 0.787045C50.3375 0.714622 50.2142 0.675781 50.0878 0.675781C49.9614 0.675781 49.838 0.714622 49.7344 0.787045C49.6309 0.859467 49.552 0.961973 49.5086 1.08068L48.6475 3.42235C48.6432 3.43391 48.6357 3.444 48.6259 3.45139C48.616 3.45878 48.6042 3.46317 48.5919 3.46402L46.0919 3.55846C45.9632 3.56056 45.8384 3.6029 45.7349 3.67953C45.6315 3.75616 45.5546 3.86325 45.5151 3.98577C45.4756 4.1083 45.4754 4.24011 45.5146 4.36274C45.5538 4.48537 45.6304 4.59266 45.7336 4.66957L47.6947 6.21124C47.7045 6.21896 47.7119 6.2294 47.7158 6.24124C47.7198 6.25309 47.7202 6.26584 47.7169 6.27791L47.0419 8.66957C47.007 8.79136 47.0104 8.92097 47.0517 9.04077C47.0929 9.16056 47.1701 9.26473 47.2727 9.3391C47.3753 9.41346 47.4983 9.45442 47.625 9.45639C47.7517 9.45837 47.876 9.42126 47.9808 9.35013L50.0531 7.96124C50.0633 7.95419 50.0754 7.95042 50.0878 7.95042C50.1002 7.95042 50.1123 7.95419 50.1225 7.96124L52.1947 9.35013C52.2982 9.42369 52.422 9.46322 52.5489 9.46322C52.6758 9.46322 52.7996 9.42369 52.9031 9.35013C53.0057 9.27646 53.083 9.17281 53.1242 9.05342C53.1655 8.93403 53.1688 8.80479 53.1336 8.68346L52.4531 6.28346C52.4495 6.27141 52.4497 6.25855 52.4536 6.24662C52.4576 6.23468 52.4652 6.22427 52.4753 6.2168L54.4447 4.66124Z" fill="#514A7E"/>
<path d="M24.4447 4.66124C24.548 4.58433 24.6245 4.47704 24.6637 4.35441C24.7029 4.23178 24.7027 4.09996 24.6632 3.97744C24.6237 3.85491 24.5468 3.74783 24.4434 3.6712C24.3399 3.59457 24.2151 3.55223 24.0864 3.55013L21.5864 3.45568C21.5741 3.45484 21.5623 3.45045 21.5525 3.44306C21.5426 3.43567 21.5351 3.42558 21.5308 3.41402L20.6669 1.08068C20.6235 0.961973 20.5447 0.859467 20.4411 0.787045C20.3375 0.714622 20.2142 0.675781 20.0878 0.675781C19.9614 0.675781 19.838 0.714622 19.7344 0.787045C19.6309 0.859467 19.552 0.961973 19.5086 1.08068L18.6475 3.42235C18.6432 3.43391 18.6357 3.444 18.6259 3.45139C18.616 3.45878 18.6042 3.46317 18.5919 3.46402L16.0919 3.55846C15.9632 3.56056 15.8384 3.6029 15.7349 3.67953C15.6315 3.75616 15.5546 3.86325 15.5151 3.98577C15.4756 4.1083 15.4754 4.24011 15.5146 4.36274C15.5538 4.48537 15.6304 4.59266 15.7336 4.66957L17.6947 6.21124C17.7045 6.21896 17.7119 6.2294 17.7158 6.24124C17.7198 6.25309 17.7202 6.26584 17.7169 6.27791L17.0419 8.66957C17.007 8.79136 17.0104 8.92097 17.0517 9.04077C17.0929 9.16056 17.1701 9.26473 17.2727 9.3391C17.3753 9.41346 17.4983 9.45442 17.625 9.45639C17.7517 9.45837 17.876 9.42126 17.9808 9.35013L20.0531 7.96124C20.0633 7.95419 20.0754 7.95042 20.0878 7.95042C20.1002 7.95042 20.1123 7.95419 20.1225 7.96124L22.1947 9.35013C22.2982 9.42369 22.422 9.46322 22.5489 9.46322C22.6758 9.46322 22.7996 9.42369 22.9031 9.35013C23.0057 9.27646 23.083 9.17281 23.1242 9.05342C23.1655 8.93403 23.1688 8.80479 23.1336 8.68346L22.4531 6.28346C22.4495 6.27141 22.4497 6.25855 22.4536 6.24662C22.4576 6.23468 22.4652 6.22427 22.4753 6.2168L24.4447 4.66124Z" fill="#514A7E"/>
<path d="M9.44473 4.66124C9.54797 4.58433 9.62455 4.47704 9.66373 4.35441C9.70291 4.23178 9.70274 4.09996 9.66322 3.97744C9.62371 3.85491 9.54684 3.74783 9.44339 3.6712C9.33995 3.59457 9.21511 3.55223 9.08639 3.55013L6.58639 3.45568C6.5741 3.45484 6.56232 3.45045 6.55246 3.44306C6.5426 3.43567 6.53509 3.42558 6.53084 3.41402L5.66695 1.08068C5.62354 0.961973 5.54471 0.859467 5.44112 0.787045C5.33752 0.714622 5.21418 0.675781 5.08778 0.675781C4.96138 0.675781 4.83804 0.714622 4.73445 0.787045C4.63086 0.859467 4.55202 0.961973 4.50861 1.08068L3.6475 3.42235C3.64325 3.43391 3.63574 3.444 3.62588 3.45139C3.61602 3.45878 3.60424 3.46317 3.59195 3.46402L1.09195 3.55846C0.963227 3.56056 0.838392 3.6029 0.734946 3.67953C0.6315 3.75616 0.554631 3.86325 0.515117 3.98577C0.475603 4.1083 0.475426 4.24011 0.51461 4.36274C0.553795 4.48537 0.630375 4.59266 0.733615 4.66957L2.69473 6.21124C2.70454 6.21896 2.71188 6.2294 2.71583 6.24124C2.71978 6.25309 2.72017 6.26584 2.71695 6.27791L2.04195 8.66957C2.00697 8.79136 2.01036 8.92097 2.05165 9.04077C2.09295 9.16056 2.17014 9.26473 2.27274 9.3391C2.37533 9.41346 2.49835 9.45442 2.62505 9.45639C2.75174 9.45837 2.87597 9.42126 2.98084 9.35013L5.05306 7.96124C5.06327 7.95419 5.07538 7.95042 5.08778 7.95042C5.10019 7.95042 5.1123 7.95419 5.1225 7.96124L7.19473 9.35013C7.29817 9.42369 7.42196 9.46322 7.54889 9.46322C7.67583 9.46322 7.79961 9.42369 7.90306 9.35013C8.00568 9.27646 8.08295 9.17281 8.12424 9.05342C8.16553 8.93403 8.1688 8.80479 8.13362 8.68346L7.45306 6.28346C7.44945 6.27141 7.44965 6.25855 7.45363 6.24662C7.45761 6.23468 7.46517 6.22427 7.47528 6.2168L9.44473 4.66124Z" fill="#514A7E"/>
</svg>
