<svg width="20" height="18" viewBox="0 0 20 18" fill="none" xmlns="http://www.w3.org/2000/svg">
<path d="M18.8895 8.32224C19.0959 8.16842 19.2491 7.95383 19.3275 7.70858C19.4058 7.46332 19.4055 7.19968 19.3264 6.95463C19.2474 6.70958 19.0937 6.49541 18.8868 6.34215C18.6799 6.18889 18.4302 6.10422 18.1728 6.10001L13.1728 5.91112C13.1482 5.90943 13.1246 5.90066 13.1049 5.88587C13.0852 5.87109 13.0702 5.85092 13.0617 5.82779L11.3339 1.16113C11.2471 0.923703 11.0894 0.71869 10.8822 0.573845C10.675 0.429 10.4284 0.351318 10.1756 0.351318C9.92277 0.351318 9.67608 0.429 9.46889 0.573845C9.26171 0.71869 9.10404 0.923703 9.01723 1.16113L7.29501 5.84446C7.28649 5.86758 7.27148 5.88775 7.25176 5.90254C7.23205 5.91733 7.20848 5.9261 7.1839 5.92779L2.1839 6.11668C1.92645 6.12089 1.67678 6.20555 1.46989 6.35882C1.263 6.51208 1.10926 6.72625 1.03023 6.9713C0.951207 7.21635 0.950852 7.47998 1.02922 7.72524C1.10759 7.9705 1.26075 8.18508 1.46723 8.3389L5.38945 11.4222C5.40908 11.4377 5.42375 11.4585 5.43165 11.4822C5.43955 11.5059 5.44033 11.5314 5.4339 11.5556L4.0839 16.3389C4.01394 16.5825 4.02072 16.8417 4.10331 17.0813C4.1859 17.3209 4.34029 17.5292 4.54548 17.6779C4.75067 17.8267 4.9967 17.9086 5.25009 17.9125C5.50349 17.9165 5.75195 17.8423 5.96167 17.7L10.1061 14.9222C10.1265 14.9081 10.1508 14.9006 10.1756 14.9006C10.2004 14.9006 10.2246 14.9081 10.245 14.9222L14.3895 17.7C14.5963 17.8471 14.8439 17.9262 15.0978 17.9262C15.3517 17.9262 15.5992 17.8471 15.8061 17.7C16.0114 17.5527 16.1659 17.3454 16.2485 17.1066C16.3311 16.8678 16.3376 16.6093 16.2672 16.3667L14.9061 11.5667C14.8989 11.5426 14.8993 11.5168 14.9073 11.493C14.9152 11.4691 14.9303 11.4483 14.9506 11.4333L18.8895 8.32224Z" fill="#514A7E"/>
</svg>
