<svg width="1440" height="27" viewBox="0 0 1440 27" fill="none" xmlns="http://www.w3.org/2000/svg">
<g opacity="0.25">
<path d="M0 7.17139C34.2864 7.17139 34.2863 19.8128 68.5727 19.8128C102.859 19.8128 102.859 7.17139 137.132 7.17139C171.405 7.17139 171.418 19.8128 205.705 19.8128C239.991 19.8128 239.991 7.17139 274.277 7.17139C308.564 7.17139 308.564 19.8128 342.837 19.8128C377.11 19.8128 377.123 7.17139 411.409 7.17139C445.696 7.17139 445.696 19.8128 479.982 19.8128C514.268 19.8128 514.268 7.17139 548.555 7.17139C582.841 7.17139 582.828 19.8128 617.114 19.8128C651.4 19.8128 651.4 7.17139 685.687 7.17139C719.973 7.17139 719.973 19.8128 754.246 19.8128C788.519 19.8128 788.532 7.17139 822.819 7.17139C857.105 7.17139 857.105 19.8128 891.405 19.8128C925.705 19.8128 925.678 7.17139 959.964 7.17139C994.251 7.17139 994.264 19.8128 1028.55 19.8128C1062.84 19.8128 1062.84 7.17139 1097.11 7.17139C1131.38 7.17139 1131.4 19.8128 1165.68 19.8128C1199.97 19.8128 1199.97 7.17139 1234.27 7.17139C1268.57 7.17139 1268.55 19.8128 1302.84 19.8128C1337.13 19.8128 1337.13 7.17139 1371.41 7.17139C1405.7 7.17139 1405.71 19.8128 1440 19.8128" fill="black"/>
<path d="M0 7.17139C34.2864 7.17139 34.2863 19.8128 68.5727 19.8128C102.859 19.8128 102.859 7.17139 137.132 7.17139C171.405 7.17139 171.418 19.8128 205.705 19.8128C239.991 19.8128 239.991 7.17139 274.277 7.17139C308.564 7.17139 308.564 19.8128 342.837 19.8128C377.11 19.8128 377.123 7.17139 411.409 7.17139C445.696 7.17139 445.696 19.8128 479.982 19.8128C514.268 19.8128 514.268 7.17139 548.555 7.17139C582.841 7.17139 582.828 19.8128 617.114 19.8128C651.4 19.8128 651.4 7.17139 685.687 7.17139C719.973 7.17139 719.973 19.8128 754.246 19.8128C788.519 19.8128 788.532 7.17139 822.819 7.17139C857.105 7.17139 857.105 19.8128 891.405 19.8128C925.705 19.8128 925.678 7.17139 959.964 7.17139C994.251 7.17139 994.264 19.8128 1028.55 19.8128C1062.84 19.8128 1062.84 7.17139 1097.11 7.17139C1131.38 7.17139 1131.4 19.8128 1165.68 19.8128C1199.97 19.8128 1199.97 7.17139 1234.27 7.17139C1268.57 7.17139 1268.55 19.8128 1302.84 19.8128C1337.13 19.8128 1337.13 7.17139 1371.41 7.17139C1405.7 7.17139 1405.71 19.8128 1440 19.8128" stroke="black" stroke-width="13" stroke-miterlimit="10"/>
</g>
</svg>
