<svg width="18" height="18" viewBox="0 0 18 18" fill="none" xmlns="http://www.w3.org/2000/svg">
<path d="M9.00022 0.388672C4.10022 0.388672 0.111328 3.87756 0.111328 8.16645C0.111328 12.4553 4.10022 15.9442 9.00022 15.9442C9.91697 15.9432 10.8292 15.816 11.7113 15.5664L14.7836 17.522C14.8674 17.5758 14.9642 17.6061 15.0638 17.6096C15.1634 17.6132 15.2621 17.5898 15.3496 17.5421C15.4371 17.4944 15.5101 17.424 15.561 17.3384C15.612 17.2528 15.6389 17.155 15.6391 17.0553V13.3164C16.3342 12.6496 16.889 11.8504 17.2706 10.966C17.6522 10.0815 17.8531 9.12969 17.8613 8.16645C17.8891 3.87756 13.9002 0.388672 9.00022 0.388672ZM14.7169 12.672C14.661 12.7238 14.6164 12.7865 14.5858 12.8563C14.5553 12.9261 14.5394 13.0014 14.5391 13.0776V16.0442L12.1058 14.4942C12.0379 14.4513 11.9615 14.4236 11.8819 14.4131C11.8023 14.4025 11.7214 14.4094 11.6447 14.4331C10.7884 14.6991 9.89683 14.8339 9.00022 14.8331C4.71133 14.8331 1.22244 11.8442 1.22244 8.16645C1.22244 4.48867 4.71133 1.49978 9.00022 1.49978C13.2891 1.49978 16.778 4.48867 16.778 8.16645C16.7653 9.01927 16.5756 9.86015 16.2208 10.6358C15.866 11.4114 15.3538 12.1048 14.7169 12.672Z" fill="#514A7E"/>
<path d="M9.00022 10.4609C9.14756 10.4609 9.28887 10.4024 9.39305 10.2982C9.49724 10.194 9.55577 10.0527 9.55577 9.90534V3.71089C9.55577 3.56355 9.49724 3.42224 9.39305 3.31806C9.28887 3.21387 9.14756 3.15534 9.00022 3.15534C8.85287 3.15534 8.71157 3.21387 8.60738 3.31806C8.50319 3.42224 8.44466 3.56355 8.44466 3.71089V9.89423C8.44318 9.96811 8.45646 10.0416 8.48372 10.1102C8.51097 10.1789 8.55166 10.2415 8.6034 10.2943C8.65513 10.347 8.71688 10.389 8.78502 10.4176C8.85315 10.4462 8.92632 10.4609 9.00022 10.4609Z" fill="#514A7E"/>
<path d="M9.00022 13.0942C9.40829 13.0942 9.73911 12.7634 9.73911 12.3553C9.73911 11.9473 9.40829 11.6164 9.00022 11.6164C8.59214 11.6164 8.26133 11.9473 8.26133 12.3553C8.26133 12.7634 8.59214 13.0942 9.00022 13.0942Z" fill="#514A7E"/>
</svg>
