<svg width="20" height="20" viewBox="0 0 20 20" fill="none" xmlns="http://www.w3.org/2000/svg">
<path d="M10.0002 9.44453C10.7694 9.44453 11.5212 9.21645 12.1608 8.78913C12.8003 8.36182 13.2987 7.75445 13.5931 7.04385C13.8874 6.33325 13.9644 5.55132 13.8144 4.79695C13.6643 4.04258 13.2939 3.34965 12.7501 2.80578C12.2062 2.26191 11.5133 1.89153 10.7589 1.74147C10.0045 1.59142 9.22261 1.66843 8.512 1.96277C7.8014 2.25711 7.19404 2.75556 6.76672 3.39509C6.33941 4.03461 6.11133 4.78649 6.11133 5.55564C6.11133 6.58704 6.52105 7.57619 7.25036 8.3055C7.97967 9.03481 8.96882 9.44453 10.0002 9.44453ZM10.0002 2.77786C10.5496 2.77786 11.0867 2.94077 11.5435 3.246C12.0003 3.55123 12.3563 3.98506 12.5665 4.49263C12.7768 5.0002 12.8318 5.55872 12.7246 6.09756C12.6174 6.63639 12.3529 7.13135 11.9644 7.51982C11.5759 7.9083 11.081 8.17286 10.5421 8.28004C10.0033 8.38722 9.44478 8.33221 8.93721 8.12197C8.42963 7.91173 7.99581 7.55569 7.69058 7.09889C7.38535 6.64209 7.22244 6.10503 7.22244 5.55564C7.22244 4.81893 7.5151 4.11239 8.03603 3.59145C8.55697 3.07052 9.2635 2.77786 10.0002 2.77786Z" fill="#121212"/>
<path d="M16.9273 13.5389C16.0364 12.5973 14.9628 11.8472 13.7721 11.3346C12.5814 10.822 11.2987 10.5576 10.0023 10.5576C8.70601 10.5576 7.42328 10.822 6.2326 11.3346C5.04192 11.8472 3.96829 12.5973 3.07735 13.5389C2.88419 13.7453 2.77691 14.0174 2.77735 14.3001V17.2223C2.77735 17.517 2.89441 17.7996 3.10278 18.008C3.31116 18.2163 3.59377 18.3334 3.88846 18.3334H16.1107C16.4054 18.3334 16.688 18.2163 16.8964 18.008C17.1047 17.7996 17.2218 17.517 17.2218 17.2223V14.3001C17.2237 14.0182 17.1185 13.7461 16.9273 13.5389ZM16.1107 17.2223H3.88846V14.2945C4.6758 13.4654 5.62362 12.8052 6.67421 12.3541C7.7248 11.903 8.85621 11.6703 9.99957 11.6703C11.1429 11.6703 12.2743 11.903 13.3249 12.3541C14.3755 12.8052 15.3233 13.4654 16.1107 14.2945V17.2223Z" fill="#121212"/>
</svg>
